<svg width="986" height="99" viewBox="0 0 986 99" fill="none" xmlns="http://www.w3.org/2000/svg">
<rect x="-2" y="-0.699585" width="21.4335" height="100.399" fill="white"/>
<rect x="34.0986" y="-0.699585" width="21.4335" height="100.399" fill="white"/>
<path d="M70.1971 -0.699585H91.6307L108.552 99.6996H87.1184L70.1971 -0.699585Z" fill="white"/>
<path d="M162.611 93V2.63637H180.551V78.5152H222.411V93H162.611ZM234.895 93V2.63637H252.835V93H234.895ZM270.583 93V2.63637H305.399C325.199 2.63637 337.558 12.3372 337.558 27.7521C337.558 35.7254 333.571 41.8382 326.528 45.2933C336.894 48.7484 342.608 56.4559 342.608 66.8211C342.608 83.4321 330.648 93 309.917 93H270.583ZM305.001 16.8553H288.522V40.2436H304.602C314.17 40.2436 319.22 35.5925 319.22 28.6824C319.22 21.3735 314.037 16.8553 305.001 16.8553ZM308.456 53.5324H288.522V78.781H309.519C318.821 78.781 324.269 73.7313 324.269 66.1567C324.269 58.5821 318.555 53.5324 308.456 53.5324ZM355.973 93V2.63637H391.321C411.653 2.63637 424.278 12.8687 424.278 29.3468C424.278 39.4463 419.892 46.4893 412.185 50.6088C416.836 53.5324 419.627 58.3163 421.487 65.758L428.264 93H409.66L404.344 69.0802C402.218 59.7781 398.763 57.9176 389.86 57.9176H373.913V93H355.973ZM390.923 16.8553H373.913V43.8316H390.524C400.624 43.8316 405.939 38.516 405.939 30.277C405.939 22.1709 400.491 16.8553 390.923 16.8553ZM481.91 94.9933C454.536 94.9933 437.659 77.0535 437.659 47.9511C437.659 18.8487 454.536 0.643045 481.91 0.643045C509.285 0.643045 526.295 18.8487 526.295 47.9511C526.295 77.0535 509.285 94.9933 481.91 94.9933ZM481.91 80.1099C498.256 80.1099 507.956 68.0171 507.956 47.9511C507.956 27.885 498.256 15.5265 481.91 15.5265C465.565 15.5265 455.997 27.7521 455.997 47.9511C455.997 68.0171 465.565 80.1099 481.91 80.1099ZM556.179 25.3602C556.179 47.0209 610.264 29.4797 610.264 66.4225C610.264 84.6281 595.381 94.9933 574.916 94.9933C554.319 94.9933 539.701 85.4254 536.246 65.758H554.983C557.242 75.3259 564.152 80.6414 575.049 80.6414C586.212 80.6414 591.926 75.9904 591.926 68.6815C591.926 45.692 537.973 62.9674 537.973 26.9548C537.973 12.6029 549.8 0.643045 571.195 0.643045C589.401 0.643045 604.816 9.41364 607.739 29.7455H588.737C586.61 19.646 580.365 14.9949 570.664 14.9949C561.627 14.9949 556.179 19.1144 556.179 25.3602ZM707.873 21.7722C707.873 35.061 698.438 39.9778 688.339 44.2302L708.139 63.2332C710.265 58.3163 711.461 52.4693 711.461 45.8249H727.674C727.674 55.9243 724.883 65.8909 719.568 74.1299L739.235 93H717.441L709.468 85.4254C701.894 91.4053 692.193 94.9933 680.499 94.9933C659.768 94.9933 647.144 83.565 647.144 67.6184C647.144 53.6652 655.25 46.7551 664.419 42.104C658.572 35.061 656.313 29.6126 656.313 22.9682C656.313 9.54652 667.476 0.643045 682.891 0.643045C699.103 0.643045 707.873 10.8754 707.873 21.7722ZM672.924 22.8353C672.924 27.2206 674.917 30.5428 679.568 35.4596C686.479 32.4032 691.661 29.081 691.661 22.8353C691.661 18.45 688.206 14.3305 682.625 14.3305C676.645 14.3305 672.924 18.0513 672.924 22.8353ZM664.286 66.4225C664.286 74.6615 670.266 80.9072 682.226 80.9072C688.339 80.9072 694.053 79.0468 698.837 75.4588L675.98 53.7981C675.05 52.8679 674.12 51.9377 673.19 51.1404C668.007 54.4626 664.286 58.9807 664.286 66.4225ZM853.415 30.5428H834.677C831.887 20.7091 824.312 15.5265 814.213 15.5265C799.063 15.5265 790.293 27.885 790.293 47.9511C790.293 68.15 798.931 80.1099 814.213 80.1099C823.781 80.1099 831.355 75.193 834.412 65.758H853.282C848.498 84.6281 832.95 94.9933 814.478 94.9933C788.034 94.9933 771.954 77.1864 771.954 47.9511C771.954 18.8487 788.3 0.643045 814.744 0.643045C833.481 0.643045 849.295 10.8754 853.415 30.5428ZM908.085 94.9933C880.71 94.9933 863.834 77.0535 863.834 47.9511C863.834 18.8487 880.71 0.643045 908.085 0.643045C935.46 0.643045 952.47 18.8487 952.47 47.9511C952.47 77.0535 935.46 94.9933 908.085 94.9933ZM908.085 80.1099C924.431 80.1099 934.131 68.0171 934.131 47.9511C934.131 27.885 924.431 15.5265 908.085 15.5265C891.74 15.5265 882.172 27.7521 882.172 47.9511C882.172 68.0171 891.74 80.1099 908.085 80.1099ZM961.189 93V74.2628H979.926V93H961.189Z" fill="white"/>
</svg>
