<svg width="986" height="110" viewBox="0 0 986 110" fill="none" xmlns="http://www.w3.org/2000/svg">
<g clip-path="url(#clip0_75_23)">
<rect y="0.694153" width="19.7259" height="109.211" fill="white"/>
<rect x="29.7633" y="0.694153" width="19.7259" height="109.211" fill="white"/>
<rect width="19.5629" height="110.014" transform="matrix(0.972243 -0.233974 0.285888 0.958263 59.5266 4.57721)" fill="white"/>
<path d="M161.129 103V12.6363H179.069V88.5152H220.928V103H161.129ZM233.412 103V12.6363H251.352V103H233.412ZM269.1 103V12.6363H303.917C323.717 12.6363 336.075 22.3371 336.075 37.7521C336.075 45.7253 332.089 51.8382 325.046 55.2933C335.411 58.7483 341.125 66.4558 341.125 76.8211C341.125 93.432 329.165 103 308.435 103H269.1ZM303.518 26.8553H287.04V50.2435H303.119C312.687 50.2435 317.737 45.5925 317.737 38.6823C317.737 31.3735 312.554 26.8553 303.518 26.8553ZM306.973 63.5323H287.04V88.781H308.036C317.338 88.781 322.787 83.7312 322.787 76.1566C322.787 68.582 317.072 63.5323 306.973 63.5323ZM354.491 103V12.6363H389.839C410.171 12.6363 422.795 22.8687 422.795 39.3467C422.795 49.4462 418.41 56.4892 410.702 60.6088C415.353 63.5323 418.144 68.3162 420.004 75.758L426.782 103H408.177L402.862 79.0802C400.736 69.778 397.281 67.9176 388.377 67.9176H372.431V103H354.491ZM389.44 26.8553H372.431V53.8315H389.041C399.141 53.8315 404.456 48.516 404.456 40.2769C404.456 32.1708 399.008 26.8553 389.44 26.8553ZM480.428 104.993C453.053 104.993 436.176 87.0534 436.176 57.951C436.176 28.8486 453.053 10.643 480.428 10.643C507.803 10.643 524.812 28.8486 524.812 57.951C524.812 87.0534 507.803 104.993 480.428 104.993ZM480.428 90.1098C496.773 90.1098 506.474 78.0171 506.474 57.951C506.474 37.885 496.773 25.5264 480.428 25.5264C464.083 25.5264 454.515 37.7521 454.515 57.951C454.515 78.0171 464.083 90.1098 480.428 90.1098ZM554.696 35.3601C554.696 57.0208 608.782 39.4796 608.782 76.4224C608.782 94.628 593.898 104.993 573.434 104.993C552.836 104.993 538.218 95.4253 534.763 75.758H553.5C555.759 85.3259 562.67 90.6414 573.566 90.6414C584.729 90.6414 590.443 85.9903 590.443 78.6815C590.443 55.6919 536.491 72.9673 536.491 36.9548C536.491 22.6029 548.318 10.643 569.713 10.643C587.918 10.643 603.333 19.4136 606.257 39.7454H587.254C585.128 29.6459 578.882 24.9949 569.181 24.9949C560.145 24.9949 554.696 29.1144 554.696 35.3601ZM706.391 31.7721C706.391 45.0609 696.956 49.9777 686.856 54.2302L706.657 73.2331C708.783 68.3162 709.979 62.4692 709.979 55.8248H726.191C726.191 65.9243 723.4 75.8908 718.085 84.1299L737.752 103H715.959L707.985 95.4253C700.411 101.405 690.71 104.993 679.016 104.993C658.285 104.993 645.661 93.5649 645.661 77.6184C645.661 63.6652 653.767 56.755 662.937 52.1039C657.089 45.0609 654.83 39.6125 654.83 32.9681C654.83 19.5465 665.993 10.643 681.408 10.643C697.62 10.643 706.391 20.8753 706.391 31.7721ZM671.441 32.8352C671.441 37.2205 673.435 40.5427 678.086 45.4596C684.996 42.4031 690.178 39.081 690.178 32.8352C690.178 28.4499 686.723 24.3304 681.142 24.3304C675.162 24.3304 671.441 28.0513 671.441 32.8352ZM662.804 76.4224C662.804 84.6614 668.784 90.9072 680.743 90.9072C686.856 90.9072 692.57 89.0467 697.354 85.4588L674.498 63.7981C673.568 62.8679 672.637 61.9376 671.707 61.1403C666.524 64.4625 662.804 68.9807 662.804 76.4224ZM851.932 40.5427H833.195C830.404 30.709 822.829 25.5264 812.73 25.5264C797.581 25.5264 788.81 37.885 788.81 57.951C788.81 78.1499 797.448 90.1098 812.73 90.1098C822.298 90.1098 829.872 85.193 832.929 75.758H851.799C847.015 94.628 831.467 104.993 812.996 104.993C786.551 104.993 770.472 87.1863 770.472 57.951C770.472 28.8486 786.817 10.643 813.262 10.643C831.999 10.643 847.812 20.8753 851.932 40.5427ZM906.603 104.993C879.228 104.993 862.351 87.0534 862.351 57.951C862.351 28.8486 879.228 10.643 906.603 10.643C933.978 10.643 950.987 28.8486 950.987 57.951C950.987 87.0534 933.978 104.993 906.603 104.993ZM906.603 90.1098C922.948 90.1098 932.649 78.0171 932.649 57.951C932.649 37.885 922.948 25.5264 906.603 25.5264C890.258 25.5264 880.69 37.7521 880.69 57.951C880.69 78.0171 890.258 90.1098 906.603 90.1098ZM959.706 103V84.2628H978.443V103H959.706Z" fill="white"/>
</g>
<defs>
<clipPath id="clip0_75_23">
<rect width="986" height="110" fill="white"/>
</clipPath>
</defs>
</svg>
