<svg width="1016" height="136" viewBox="0 0 1016 136" fill="none" xmlns="http://www.w3.org/2000/svg">
<g clip-path="url(#clip0_75_23)">
<rect x="29.6523" y="0.85907" width="19.6523" height="135.159" fill="white"/>
<rect y="0.85907" width="19.6523" height="135.159" fill="white"/>
<rect x="59.3047" y="0.85907" width="19.6523" height="135.159" fill="white"/>
<rect width="19.7776" height="134.18" transform="matrix(0.958104 -0.286421 0.233526 0.972351 88.957 5.66473)" fill="white"/>
<path d="M190.781 116V25.6364H208.721V101.515H250.581V116H190.781ZM263.065 116V25.6364H281.005V116H263.065ZM298.752 116V25.6364H333.569C353.369 25.6364 365.728 35.3372 365.728 50.7521C365.728 58.7254 361.741 64.8382 354.698 68.2933C365.063 71.7484 370.777 79.4559 370.777 89.8211C370.777 106.432 358.818 116 338.087 116H298.752ZM333.17 39.8553H316.692V63.2436H332.772C342.339 63.2436 347.389 58.5925 347.389 51.6824C347.389 44.3735 342.207 39.8553 333.17 39.8553ZM336.625 76.5324H316.692V101.781H337.688C346.991 101.781 352.439 96.7313 352.439 89.1567C352.439 81.5821 346.725 76.5324 336.625 76.5324ZM384.143 116V25.6364H419.491C439.823 25.6364 452.447 35.8687 452.447 52.3468C452.447 62.4463 448.062 69.4893 440.355 73.6088C445.006 76.5324 447.796 81.3163 449.657 88.758L456.434 116H437.83L432.514 92.0802C430.388 82.7781 426.933 80.9176 418.029 80.9176H402.083V116H384.143ZM419.092 39.8553H402.083V66.8316H418.694C428.793 66.8316 434.109 61.516 434.109 53.277C434.109 45.1709 428.66 39.8553 419.092 39.8553ZM510.08 117.993C482.705 117.993 465.828 100.053 465.828 70.9511C465.828 41.8487 482.705 23.643 510.08 23.643C537.455 23.643 554.465 41.8487 554.465 70.9511C554.465 100.053 537.455 117.993 510.08 117.993ZM510.08 103.11C526.425 103.11 536.126 91.0171 536.126 70.9511C536.126 50.885 526.425 38.5265 510.08 38.5265C493.735 38.5265 484.167 50.7521 484.167 70.9511C484.167 91.0171 493.735 103.11 510.08 103.11ZM584.349 48.3602C584.349 70.0209 638.434 52.4797 638.434 89.4225C638.434 107.628 623.551 117.993 603.086 117.993C582.488 117.993 567.871 108.425 564.416 88.758H583.153C585.412 98.3259 592.322 103.641 603.219 103.641C614.381 103.641 620.095 98.9904 620.095 91.6815C620.095 68.692 566.143 85.9674 566.143 49.9548C566.143 35.6029 577.97 23.643 599.365 23.643C617.571 23.643 632.986 32.4136 635.909 52.7455H616.906C614.78 42.646 608.534 37.9949 598.833 37.9949C589.797 37.9949 584.349 42.1144 584.349 48.3602ZM736.043 44.7722C736.043 58.061 726.608 62.9778 716.509 67.2302L736.309 86.2332C738.435 81.3163 739.631 75.4693 739.631 68.8249H755.843C755.843 78.9243 753.053 88.8909 747.737 97.1299L767.405 116H745.611L737.638 108.425C730.063 114.405 720.362 117.993 708.668 117.993C687.938 117.993 675.313 106.565 675.313 90.6184C675.313 76.6652 683.42 69.7551 692.589 65.104C686.742 58.061 684.483 52.6126 684.483 45.9682C684.483 32.5465 695.645 23.643 711.06 23.643C727.273 23.643 736.043 33.8754 736.043 44.7722ZM701.094 45.8353C701.094 50.2206 703.087 53.5428 707.738 58.4596C714.648 55.4032 719.831 52.081 719.831 45.8353C719.831 41.45 716.376 37.3305 710.794 37.3305C704.815 37.3305 701.094 41.0513 701.094 45.8353ZM692.456 89.4225C692.456 97.6615 698.436 103.907 710.396 103.907C716.509 103.907 722.223 102.047 727.007 98.4588L704.15 76.7981C703.22 75.8679 702.29 74.9377 701.359 74.1404C696.177 77.4626 692.456 81.9807 692.456 89.4225ZM881.584 53.5428H862.847C860.056 43.7091 852.482 38.5265 842.382 38.5265C827.233 38.5265 818.463 50.885 818.463 70.9511C818.463 91.15 827.1 103.11 842.382 103.11C851.95 103.11 859.525 98.193 862.581 88.758H881.451C876.667 107.628 861.119 117.993 842.648 117.993C816.203 117.993 800.124 100.186 800.124 70.9511C800.124 41.8487 816.469 23.643 842.914 23.643C861.651 23.643 877.465 33.8754 881.584 53.5428ZM936.255 117.993C908.88 117.993 892.003 100.053 892.003 70.9511C892.003 41.8487 908.88 23.643 936.255 23.643C963.63 23.643 980.64 41.8487 980.64 70.9511C980.64 100.053 963.63 117.993 936.255 117.993ZM936.255 103.11C952.6 103.11 962.301 91.0171 962.301 70.9511C962.301 50.885 952.6 38.5265 936.255 38.5265C919.91 38.5265 910.342 50.7521 910.342 70.9511C910.342 91.0171 919.91 103.11 936.255 103.11ZM989.358 116V97.2628H1008.1V116H989.358Z" fill="white"/>
</g>
<defs>
<clipPath id="clip0_75_23">
<rect width="1016" height="136" fill="white"/>
</clipPath>
</defs>
</svg>
